<?xml version="1.0" encoding="UTF-8"?>
<svg width="200px" height="200px" viewBox="0 0 200 200" version="1.1" xmlns="http://www.w3.org/2000/svg" xmlns:xlink="http://www.w3.org/1999/xlink">
    <title>Artboard</title>
    <g id="Artboard" stroke="none" stroke-width="1" fill="none" fill-rule="evenodd">
        <rect fill="#FFFFFF" x="0" y="0" width="200" height="200"></rect>
        <g id="holly-cross" transform="translate(25, 27)" fill-rule="nonzero">
            <path d="M45.9488372,18.6203712 C45.2334751,16.8969598 45.4939769,14.9236882 46.6322142,13.4438689 C47.7704514,11.9640496 49.6134987,11.2025023 51.467098,11.4460945 C53.3206972,11.6896867 54.9032427,12.9014109 55.6186047,14.6248224 L60.9627907,27.4815797 C61.6781527,29.207478 61.4163211,31.1830475 60.2759253,32.6641102 C59.1355295,34.1451729 57.2898227,34.9067202 55.4340648,34.6618846 C53.578307,34.417049 51.9944318,33.2030268 51.2790698,31.4771285 L45.9488372,18.6203712 Z M36.4186047,43.7213278 C38.4726814,45.6988708 41.7362632,45.6690507 43.7536951,43.6543054 C45.771127,41.6395601 45.7979376,38.3833696 43.8139535,36.3358273 L27.6976744,20.2561796 C25.6454676,18.276705 22.3818591,18.3034546 20.3625239,20.316301 C18.3431888,22.3291474 18.3133008,25.5853113 20.2953488,27.6347192 L36.4186047,43.7213278 Z M111.767442,43.4916249 C113.157459,43.4937858 114.490905,42.942578 115.472093,41.9602235 L131.588372,25.8805758 C133.412682,23.8138117 133.314159,20.6886196 131.363274,18.740329 C129.412389,16.7920384 126.280172,16.6907874 124.206977,18.5089971 L108.083721,34.5816839 C106.589161,36.0747023 106.142385,38.3185806 106.951486,40.2681957 C107.760588,42.2178107 109.666454,43.4897625 111.781395,43.4916249 L111.767442,43.4916249 Z M14.9372093,55.9237617 L27.8232558,61.2558007 C30.4934883,62.359141 33.5546111,61.093844 34.660465,58.4296808 C35.7663188,55.7655176 34.4981394,52.7113525 31.827907,51.6080121 L18.9418605,46.2759731 C17.2145229,45.5622371 15.236756,45.8221468 13.7535655,46.9577969 C12.2703751,48.0934469 11.5070929,49.9323051 11.75124,51.7816912 C11.9953871,53.6310773 13.2098717,55.2100257 14.9372093,55.9237617 L14.9372093,55.9237617 Z M130.444186,46.2759731 L117.55814,51.6080121 C114.887907,52.7113525 113.619728,55.7655176 114.725581,58.4296808 C115.831435,61.0938441 118.892558,62.3591411 121.562791,61.2558007 L134.448837,55.9237617 C137.11907,54.8204214 138.387249,51.7662563 137.281395,49.102093 C136.175541,46.4379298 133.114419,45.1726328 130.444186,46.2759731 L130.444186,46.2759731 Z M75,31.323989 C77.8898621,31.323989 80.2325581,28.9866178 80.2325581,26.1033242 L80.2325581,5.22066484 C80.2325581,2.33737126 77.8898621,0 75,0 C72.1101379,0 69.7674419,2.33737126 69.7674419,5.22066484 L69.7674419,26.1033242 C69.7674419,28.9866178 72.1101379,31.323989 75,31.323989 Z M91.4302326,34.3032484 C92.712509,34.8332424 94.1532995,34.8332292 95.4355662,34.3032119 C96.7178329,33.7731946 97.7365095,32.7566015 98.2674419,31.4771285 L103.604651,18.6203712 C104.320013,16.8969598 104.059511,14.9236883 102.921274,13.443869 C101.783037,11.9640497 99.9399896,11.2025024 98.0863904,11.4460946 C96.2327912,11.6896868 94.6502458,12.901411 93.9348837,14.6248224 L88.6046512,27.4815797 C87.4976698,30.1438214 88.7624921,33.1974226 91.4302326,34.3032484 L91.4302326,34.3032484 Z M36.4186047,105.944692 L20.2953488,122.0313 C18.9357446,123.342719 18.3911471,125.284029 18.8708714,127.109093 C19.3505956,128.934157 20.7799859,130.358954 22.6096591,130.835867 C24.4393322,131.31278 26.384551,130.76759 27.6976744,129.40984 L43.8139535,113.330192 C45.7979376,111.28265 45.771127,108.026459 43.7536951,106.011714 C41.7362632,103.996969 38.4726814,103.967149 36.4186047,105.944692 L36.4186047,105.944692 Z M113.581395,105.944692 C111.527319,103.967149 108.263737,103.996969 106.246305,106.011714 C104.228873,108.026459 104.202062,111.28265 106.186047,113.330192 L122.302326,129.40984 C123.615449,130.76759 125.560668,131.31278 127.390341,130.835867 C129.220014,130.358954 130.649404,128.934157 131.129129,127.109093 C131.608853,125.284029 131.064255,123.342719 129.704651,122.0313 L113.581395,105.944692 Z M134.755814,93.5543139 L121.869767,88.2292357 C120.1302,87.444012 118.10006,87.666477 116.572777,88.8096857 C115.045493,89.9528943 114.263555,91.8353382 114.532563,93.7213107 C114.801572,95.6072832 116.078816,97.1973464 117.865116,97.8700635 L130.751163,103.202102 C133.421395,104.305443 136.482518,103.040146 137.588372,100.375983 C138.694226,97.7118193 137.426046,94.6576542 134.755814,93.5543139 L134.755814,93.5543139 Z M31.3953488,74.8295293 C31.3953488,71.9462357 29.0526528,69.6088645 26.1627907,69.6088645 L5.23255814,69.6088645 C2.34269608,69.6088645 0,71.9462357 0,74.8295293 C0,77.7128229 2.34269608,80.0501941 5.23255814,80.0501941 L26.1627907,80.0501941 C29.0526528,80.0501941 31.3953488,77.7128229 31.3953488,74.8295293 Z M144.767442,69.6088645 L123.837209,69.6088645 C120.947347,69.6088645 118.604651,71.9462358 118.604651,74.8295293 C118.604651,77.7128228 120.947347,80.0501941 123.837209,80.0501941 L144.767442,80.0501941 C147.657304,80.0501941 150,77.7128229 150,74.8295293 C150,71.9462357 147.657304,69.6088645 144.767442,69.6088645 Z M111.627907,86.0922436 L111.627907,65.2095842 C111.627907,62.3262907 109.285211,59.9889194 106.395349,59.9889194 L90.6976744,59.9889194 L90.6976744,44.3269249 C90.6976744,41.4436313 88.3549783,39.1062601 85.4651163,39.1062601 L64.5348837,39.1062601 C61.6450217,39.1062601 59.3023256,41.4436313 59.3023256,44.3269249 L59.3023256,59.9889194 L43.6046512,59.9889194 C40.7147891,59.9889194 38.372093,62.3262907 38.372093,65.2095842 L38.372093,86.0922436 C38.372093,88.9755372 40.7147891,91.3129084 43.6046512,91.3129084 L59.3023256,91.3129084 L59.3023256,141.779335 C59.3023256,144.662629 61.6450217,147 64.5348837,147 L85.4651163,147 C88.3549783,147 90.6976744,144.662629 90.6976744,141.779335 L90.6976744,91.3129084 L106.395349,91.3129084 C109.285211,91.3129084 111.627907,88.9755372 111.627907,86.0922436 L111.627907,86.0922436 Z M32.1348837,97.8631026 C33.9211843,97.1903855 35.1984283,95.6003223 35.4674367,93.7143498 C35.736445,91.8283773 34.9545069,89.9459334 33.4272234,88.8027248 C31.8999399,87.6595161 29.8697996,87.4370512 28.1302326,88.2222748 L15.244186,93.547353 C12.5739536,94.6506934 11.3057742,97.7048584 12.4116281,100.369022 C13.5174819,103.033185 16.5786047,104.298482 19.2488372,103.195142 L32.1348837,97.8631026 Z" id="Shape" fill="#B9F3E9"></path>
            <path d="M111.627907,86.0922436 L111.627907,65.2095842 C111.627907,62.3262907 109.285211,59.9889194 106.395349,59.9889194 L90.6976743,59.9889194 L90.6976743,44.3269249 C90.6976743,41.4436313 88.3549783,39.1062601 85.4651162,39.1062601 L64.5348836,39.1062601 C61.6450215,39.1062601 59.3023254,41.4436313 59.3023254,44.3269249 L59.3023254,59.9889194 L43.604651,59.9889194 C40.7147889,59.9889194 38.3720929,62.3262907 38.3720929,65.2095842 L38.3720929,86.0922436 C38.3720929,88.9755372 40.7147889,91.3129084 43.604651,91.3129084 L59.3023254,91.3129084 L59.3023254,141.779335 C59.3023254,144.662629 61.6450215,147 64.5348836,147 L85.4651162,147 C88.3549783,147 90.6976743,144.662629 90.6976743,141.779335 L90.6976743,91.3129084 L106.395349,91.3129084 C109.285211,91.3129084 111.627907,88.9755372 111.627907,86.0922436 Z M101.162791,80.8715787 L85.4651162,80.8715787 C82.5752541,80.8715787 80.232558,83.20895 80.232558,86.0922436 L80.232558,136.55867 L69.7674417,136.55867 L69.7674417,86.0922436 C69.7674417,83.20895 67.4247457,80.8715787 64.5348836,80.8715787 L48.8372092,80.8715787 L48.8372092,70.4302491 L64.5348836,70.4302491 C67.4247457,70.4302491 69.7674417,68.0928778 69.7674417,65.2095842 L69.7674417,49.5475897 L80.232558,49.5475897 L80.232558,65.2095842 C80.232558,68.0928778 82.5752541,70.4302491 85.4651162,70.4302491 L101.162791,70.4302491 L101.162791,80.8715787 Z M69.7674417,26.1033242 L69.7674417,5.22066484 C69.7674417,2.33737126 72.1101378,0 74.9999999,0 C77.889862,0 80.232558,2.33737126 80.232558,5.22066484 L80.232558,26.1033242 C80.232558,28.9866178 77.889862,31.323989 74.9999999,31.323989 C72.1101378,31.323989 69.7674417,28.9866178 69.7674417,26.1033242 Z M150,74.8295293 C150,77.7128229 147.657304,80.0501941 144.767442,80.0501941 L123.837209,80.0501941 C120.947347,80.0501941 118.604651,77.7128229 118.604651,74.8295293 C118.604651,71.9462357 120.947347,69.6088645 123.837209,69.6088645 L144.767442,69.6088645 C147.657304,69.6088645 150,71.9462357 150,74.8295293 Z M26.1627905,80.0501941 L5.23255793,80.0501941 C2.34269595,80.0501941 0,77.7128228 0,74.8295293 C0,71.9462358 2.34269595,69.6088645 5.23255793,69.6088645 L26.1627905,69.6088645 C29.0526526,69.6088645 31.3953487,71.9462357 31.3953487,74.8295293 C31.3953487,77.7128229 29.0526526,80.0501941 26.1627905,80.0501941 L26.1627905,80.0501941 Z M20.2953486,27.6347192 C18.3133006,25.5853113 18.3431886,22.3291474 20.3625237,20.316301 C22.3818589,18.3034546 25.6454674,18.276705 27.6976742,20.2561796 L43.8139533,36.3358273 C45.7979374,38.3833696 45.7711268,41.6395601 43.7536949,43.6543054 C41.736263,45.6690507 38.4726812,45.6988708 36.4186045,43.7213278 L20.2953486,27.6347192 Z M108.083721,41.9602235 C107.102124,40.9822518 106.550551,39.6550006 106.550551,38.2709537 C106.550551,36.8869068 107.102124,35.5596556 108.083721,34.5816839 L124.206977,18.5089971 C126.261053,16.5314541 129.524635,16.5612742 131.542067,18.5760195 C133.559499,20.5907648 133.58631,23.8469553 131.602326,25.8944976 L115.465116,41.9602235 C114.483725,42.9400118 113.152295,43.490504 111.763953,43.490504 C110.375612,43.490504 109.044182,42.9400118 108.062791,41.9602235 L108.083721,41.9602235 Z M43.8139533,105.944692 C44.7959737,106.923852 45.34772,108.252256 45.34772,109.637442 C45.34772,111.022628 44.7959737,112.351032 43.8139533,113.330192 L27.6976742,129.40984 C26.3845508,130.76759 24.439332,131.31278 22.6096589,130.835867 C20.7799857,130.358954 19.3505954,128.934157 18.8708712,127.109093 C18.3911469,125.284029 18.9357444,123.342719 20.2953486,122.0313 L36.4186045,105.944692 C37.3988042,104.965326 38.729079,104.415007 40.1162789,104.415007 C41.5034788,104.415007 42.8337536,104.965326 43.8139533,105.944692 Z M129.704651,122.0313 C131.064255,123.342719 131.608853,125.284029 131.129129,127.109093 C130.649404,128.934157 129.220014,130.358954 127.390341,130.835867 C125.560668,131.31278 123.615449,130.76759 122.302326,129.40984 L106.186046,113.330192 C104.202062,111.28265 104.228873,108.026459 106.246305,106.011714 C108.263737,103.996969 111.527319,103.967149 113.581395,105.944692 L129.704651,122.0313 Z M45.9837208,18.6203712 C45.2683587,16.8969598 45.5288605,14.9236882 46.6670977,13.4438689 C47.805335,11.9640496 49.6483823,11.2025023 51.5019815,11.4460945 C53.3555808,11.6896867 54.9381262,12.9014109 55.6534882,14.6248224 L60.9976743,27.4815797 C62.1035282,30.1591983 60.8244161,33.2242712 58.1406975,34.3276115 C55.456979,35.4309519 52.3849235,34.1547471 51.2790696,31.4771285 L45.9837208,18.6203712 Z M88.6046511,27.4815797 L93.9418604,14.6248224 C94.6572224,12.9014109 96.2397678,11.6896867 98.0933671,11.4460945 C99.9469664,11.2025023 101.790014,11.9640496 102.928251,13.4438689 C104.066488,14.9236882 104.32699,16.8969598 103.611628,18.6203712 L98.2674418,31.4771285 C97.5931922,33.2593689 95.9995066,34.5337099 94.1092376,34.8021068 C92.2189687,35.0705037 90.3322364,34.2903428 89.1864233,32.7665308 C88.0406103,31.2427187 87.8176386,29.2171928 88.6046511,27.4815797 L88.6046511,27.4815797 Z M12.104651,49.102093 C12.6355833,47.82262 13.6542599,46.806027 14.9365266,46.2760096 C16.2187933,45.7459923 17.6595839,45.7459792 18.9418603,46.2759731 L31.8279068,51.6080121 C34.4981394,52.7113525 35.7663188,55.7655176 34.6604649,58.4296808 C33.5546111,61.0938441 30.4934882,62.3591411 27.8232556,61.2558007 L14.9372091,55.9237617 C13.6548213,55.3940362 12.6359123,54.377675 12.1046876,53.0983228 C11.5734628,51.8189706 11.5734496,50.3814549 12.104651,49.102093 L12.104651,49.102093 Z M137.281395,49.102093 C137.812597,50.3814549 137.812584,51.8189706 137.281359,53.0983228 C136.750134,54.377675 135.731225,55.3940362 134.448837,55.9237617 L121.562791,61.2558007 C119.835453,61.9695368 117.857686,61.709627 116.374496,60.573977 C114.891305,59.4383269 114.128023,57.5994688 114.37217,55.7500827 C114.616317,53.9006965 115.830802,52.3217482 117.558139,51.6080121 L130.444186,46.2759731 C131.726462,45.7459792 133.167253,45.7459923 134.44952,46.2760096 C135.731786,46.806027 136.750463,47.82262 137.281395,49.102093 L137.281395,49.102093 Z M19.248837,103.202102 C17.5214994,103.915839 15.5437325,103.655929 14.060542,102.520279 C12.5773515,101.384629 11.8140693,99.5457706 12.0582164,97.6963844 C12.3023635,95.8469983 13.5168482,94.2680499 15.2441858,93.5543139 L28.1302324,88.2292357 C29.8747216,87.4084994 31.9302928,87.6117874 33.479347,88.7582424 C35.0284013,89.9046974 35.8197463,91.808412 35.5386264,93.7121879 C35.2575066,95.6159638 33.9495077,97.2110877 32.1348835,97.8631026 L19.248837,103.202102 Z M137.588372,100.375983 C137.05744,101.655456 136.038763,102.672049 134.756496,103.202066 C133.47423,103.732083 132.033439,103.732096 130.751163,103.202102 L117.865116,97.8631026 C116.078816,97.1903855 114.801572,95.6003223 114.532563,93.7143498 C114.263555,91.8283773 115.045493,89.9459334 116.572777,88.8027248 C118.10006,87.6595161 120.1302,87.4370512 121.869767,88.2222748 L134.755814,93.547353 C136.039933,94.077027 137.060161,95.0945506 137.591528,96.3755508 C138.122895,97.6565509 138.121759,99.0958187 137.588372,100.375983 L137.588372,100.375983 Z" id="Shape" fill="#00D3AD"></path>
        </g>
    </g>
</svg>