<?xml version="1.0" encoding="UTF-8"?>
<svg width="200px" height="200px" viewBox="0 0 200 200" version="1.1" xmlns="http://www.w3.org/2000/svg" xmlns:xlink="http://www.w3.org/1999/xlink">
    <title>Artboard</title>
    <g id="Artboard" stroke="none" stroke-width="1" fill="none" fill-rule="evenodd">
        <rect fill="#FFFFFF" x="0" y="0" width="200" height="200"></rect>
        <g id="holly-cross" transform="translate(50, 51)" fill-rule="nonzero">
            <path d="M30.6325581,12.4418604 C30.15565,11.2903021 30.3293179,9.97179079 31.0881427,8.98299711 C31.8469675,7.99420342 33.0756657,7.48534861 34.3113986,7.64811336 C35.5471314,7.81087811 36.6021617,8.62053458 37.0790697,9.77209301 L40.6418604,18.3627907 C41.1187684,19.5160108 40.944214,20.8360575 40.1839501,21.825682 C39.4236862,22.8153065 38.1932151,23.3241613 36.9560432,23.1605657 C35.7188713,22.9969701 34.6629545,22.1857782 34.1860465,21.0325581 L30.6325581,12.4418604 Z M24.2790697,29.2139534 C25.6484542,30.5353188 27.8241754,30.5153935 29.16913,29.1691701 C30.5140846,27.8229466 30.5319583,25.6472076 29.2093023,24.2790697 L18.4651163,13.5348837 C17.0969784,12.2122276 14.9212393,12.2301014 13.5750159,13.575056 C12.2287925,14.9200106 12.2088672,17.0957318 13.5302325,18.4651163 L24.2790697,29.2139534 Z M74.5116278,29.0604693 C75.4383058,29.0619132 76.3272699,28.6936042 76.9813952,28.0372093 L87.7255813,17.2930232 C88.9417876,15.9120416 88.876106,13.8238338 87.5755159,12.5220145 C86.2749258,11.2201951 84.1867811,11.1525407 82.804651,12.3674418 L72.0558138,23.1069767 C71.0594403,24.1045898 70.7615897,25.6039166 71.3009907,26.906621 C71.8403917,28.2093253 73.1109689,29.0592249 74.5209301,29.0604693 L74.5116278,29.0604693 Z M9.95813952,37.3674418 L18.5488372,40.9302325 C20.3289922,41.6674684 22.3697407,40.8220154 23.1069766,39.0418604 C23.8442125,37.2617054 22.9987596,35.2209568 21.2186046,34.4837209 L12.627907,30.9209302 C11.4763486,30.4440222 10.1578373,30.6176901 9.16904369,31.3765149 C8.18025003,32.1353397 7.67139523,33.3640379 7.83415997,34.5997707 C7.9969247,35.8355035 8.80658113,36.8905338 9.95813952,37.3674418 L9.95813952,37.3674418 Z M86.9627906,30.9209302 L78.3720929,34.4837209 C76.5919379,35.2209568 75.7464849,37.2617054 76.4837208,39.0418604 C77.2209567,40.8220154 79.2617053,41.6674684 81.0418603,40.9302325 L89.632558,37.3674418 C91.412713,36.6302059 92.258166,34.5894573 91.52093,32.8093023 C90.7836941,31.0291473 88.7429456,30.1836943 86.9627906,30.9209302 L86.9627906,30.9209302 Z M49.9999999,20.9302325 C51.9265746,20.9302325 53.488372,19.3684351 53.488372,17.4418604 L53.488372,3.48837209 C53.488372,1.56179738 51.9265746,0 49.9999999,0 C48.0734252,0 46.5116278,1.56179738 46.5116278,3.48837209 L46.5116278,17.4418604 C46.5116278,19.3684351 48.0734252,20.9302325 49.9999999,20.9302325 Z M60.9534883,22.9209302 C61.8083392,23.2750644 62.7688663,23.2750556 63.6237107,22.9209058 C64.4785552,22.5667559 65.1576729,21.8874833 65.5116278,21.0325581 L69.0697673,12.4418604 C69.5466754,11.2903021 69.3730075,9.97179083 68.6141826,8.98299717 C67.8553578,7.99420352 66.6266597,7.48534872 65.3909268,7.64811345 C64.155194,7.81087819 63.1001637,8.62053462 62.6232557,9.77209301 L59.0697674,18.3627907 C58.3317798,20.1416617 59.1749947,22.1820335 60.9534883,22.9209302 L60.9534883,22.9209302 Z M24.2790697,70.7906976 L13.5302325,81.5395348 C12.6238297,82.4158055 12.2607647,83.7129609 12.5805809,84.932442 C12.900397,86.151923 13.8533239,87.1039518 15.073106,87.4226179 C16.2928881,87.741284 17.5897006,87.376996 18.4651163,86.4697673 L29.2093023,75.7255813 C30.5319583,74.3574434 30.5140846,72.1817044 29.16913,70.835481 C27.8241754,69.4892575 25.6484542,69.4693322 24.2790697,70.7906976 L24.2790697,70.7906976 Z M75.7209301,70.7906976 C74.3515456,69.4693322 72.1758244,69.4892575 70.8308699,70.835481 C69.4859153,72.1817044 69.4680415,74.3574434 70.7906976,75.7255813 L81.5348836,86.4697673 C82.4102992,87.376996 83.7071117,87.741284 84.9268938,87.4226179 C86.1466759,87.1039518 87.0996028,86.151923 87.419419,84.932442 C87.7392351,83.7129609 87.3761701,82.4158055 86.4697673,81.5395348 L75.7209301,70.7906976 Z M89.8372092,62.5116278 L81.2465115,58.9534883 C80.0868001,58.4288133 78.7333733,58.5774611 77.7151843,59.3413365 C76.6969953,60.1052118 76.1757032,61.3630333 76.3550421,62.6232127 C76.534381,63.883392 77.385877,64.945849 78.5767441,65.3953487 L87.1674417,68.9581394 C88.9475968,69.6953753 90.9883453,68.8499223 91.7255812,67.0697673 C92.4628171,65.2896123 91.6173642,63.2488638 89.8372092,62.5116278 L89.8372092,62.5116278 Z M20.9302325,49.9999999 C20.9302325,48.0734252 19.3684351,46.5116278 17.4418604,46.5116278 L3.48837209,46.5116278 C1.56179738,46.5116278 0,48.0734252 0,49.9999999 C0,51.9265746 1.56179738,53.488372 3.48837209,53.488372 L17.4418604,53.488372 C19.3684351,53.488372 20.9302325,51.9265746 20.9302325,49.9999999 Z M96.5116278,46.5116278 L82.5581394,46.5116278 C80.6315648,46.5116278 79.0697675,48.0734253 79.0697675,49.9999999 C79.0697675,51.9265746 80.6315648,53.488372 82.5581394,53.488372 L96.5116278,53.488372 C98.4382025,53.488372 99.9999999,51.9265746 99.9999999,49.9999999 C99.9999999,48.0734252 98.4382025,46.5116278 96.5116278,46.5116278 Z M74.4186045,57.5255813 L74.4186045,43.572093 C74.4186045,41.6455183 72.8568072,40.0837209 70.9302325,40.0837209 L60.4651162,40.0837209 L60.4651162,29.6186046 C60.4651162,27.6920299 58.9033188,26.1302325 56.9767441,26.1302325 L43.0232558,26.1302325 C41.096681,26.1302325 39.5348837,27.6920299 39.5348837,29.6186046 L39.5348837,40.0837209 L29.0697674,40.0837209 C27.1431927,40.0837209 25.5813953,41.6455183 25.5813953,43.572093 L25.5813953,57.5255813 C25.5813953,59.452156 27.1431927,61.0139534 29.0697674,61.0139534 L39.5348837,61.0139534 L39.5348837,94.7348836 C39.5348837,96.6614583 41.096681,98.2232557 43.0232558,98.2232557 L56.9767441,98.2232557 C58.9033188,98.2232557 60.4651162,96.6614583 60.4651162,94.7348836 L60.4651162,61.0139534 L70.9302325,61.0139534 C72.8568072,61.0139534 74.4186045,59.452156 74.4186045,57.5255813 L74.4186045,57.5255813 Z M21.4232558,65.3906976 C22.6141228,64.9411978 23.4656189,63.8787408 23.6449577,62.6185615 C23.8242966,61.3583822 23.3030045,60.1005607 22.2848156,59.3366853 C21.2666266,58.57281 19.9131997,58.4241621 18.7534883,58.9488371 L10.1627907,62.5069767 C8.38263571,63.2442126 7.53718278,65.2849611 8.27441869,67.0651161 C9.01165459,68.8452711 11.0524031,69.6907241 12.8325581,68.9534883 L21.4232558,65.3906976 Z" id="Shape" fill="#B9F3E9"></path>
            <path d="M74.4186045,57.5255813 L74.4186045,43.572093 C74.4186045,41.6455183 72.8568072,40.0837209 70.9302325,40.0837209 L60.4651162,40.0837209 L60.4651162,29.6186046 C60.4651162,27.6920299 58.9033188,26.1302325 56.9767441,26.1302325 L43.0232558,26.1302325 C41.096681,26.1302325 39.5348837,27.6920299 39.5348837,29.6186046 L39.5348837,40.0837209 L29.0697674,40.0837209 C27.1431927,40.0837209 25.5813953,41.6455183 25.5813953,43.572093 L25.5813953,57.5255813 C25.5813953,59.452156 27.1431927,61.0139534 29.0697674,61.0139534 L39.5348837,61.0139534 L39.5348837,94.7348836 C39.5348837,96.6614583 41.096681,98.2232557 43.0232558,98.2232557 L56.9767441,98.2232557 C58.9033188,98.2232557 60.4651162,96.6614583 60.4651162,94.7348836 L60.4651162,61.0139534 L70.9302325,61.0139534 C72.8568072,61.0139534 74.4186045,59.452156 74.4186045,57.5255813 Z M67.4418604,54.0372092 L56.9767441,54.0372092 C55.0501694,54.0372092 53.488372,55.5990066 53.488372,57.5255813 L53.488372,91.2465115 L46.5116278,91.2465115 L46.5116278,57.5255813 C46.5116278,55.5990066 44.9498305,54.0372092 43.0232558,54.0372092 L32.5581395,54.0372092 L32.5581395,47.060465 L43.0232558,47.060465 C44.9498305,47.060465 46.5116278,45.4986677 46.5116278,43.572093 L46.5116278,33.1069767 L53.488372,33.1069767 L53.488372,43.572093 C53.488372,45.4986677 55.0501694,47.060465 56.9767441,47.060465 L67.4418604,47.060465 L67.4418604,54.0372092 Z M46.5116278,17.4418604 L46.5116278,3.48837209 C46.5116278,1.56179738 48.0734252,0 49.9999999,0 C51.9265746,0 53.488372,1.56179738 53.488372,3.48837209 L53.488372,17.4418604 C53.488372,19.3684351 51.9265746,20.9302325 49.9999999,20.9302325 C48.0734252,20.9302325 46.5116278,19.3684351 46.5116278,17.4418604 Z M99.9999999,49.9999999 C99.9999999,51.9265746 98.4382025,53.488372 96.5116278,53.488372 L82.5581394,53.488372 C80.6315647,53.488372 79.0697673,51.9265746 79.0697673,49.9999999 C79.0697673,48.0734252 80.6315647,46.5116278 82.5581394,46.5116278 L96.5116278,46.5116278 C98.4382025,46.5116278 99.9999999,48.0734252 99.9999999,49.9999999 Z M17.4418604,53.488372 L3.48837209,53.488372 C1.56179744,53.488372 1.47023911e-07,51.9265746 1.47023911e-07,49.9999999 C1.47023911e-07,48.0734253 1.56179744,46.5116278 3.48837209,46.5116278 L17.4418604,46.5116278 C19.3684351,46.5116278 20.9302325,48.0734252 20.9302325,49.9999999 C20.9302325,51.9265746 19.3684351,53.488372 17.4418604,53.488372 L17.4418604,53.488372 Z M13.5302325,18.4651163 C12.2088672,17.0957318 12.2287925,14.9200106 13.5750159,13.575056 C14.9212393,12.2301014 17.0969784,12.2122276 18.4651163,13.5348837 L29.2093023,24.2790697 C30.5319583,25.6472076 30.5140846,27.8229466 29.16913,29.1691701 C27.8241754,30.5153935 25.6484542,30.5353188 24.2790697,29.2139534 L13.5302325,18.4651163 Z M72.0558138,28.0372093 C71.401416,27.3837428 71.0337008,26.4968929 71.0337008,25.572093 C71.0337008,24.6472931 71.401416,23.7604432 72.0558138,23.1069767 L82.804651,12.3674418 C84.1740355,11.0460765 86.3497567,11.0660018 87.6947113,12.4122252 C89.0396659,13.7584487 89.0575396,15.9341877 87.7348836,17.3023256 L76.9767441,28.0372093 C76.3224833,28.6918895 75.4348634,29.0597203 74.5093022,29.0597203 C73.5837411,29.0597203 72.6961212,28.6918895 72.0418604,28.0372093 L72.0558138,28.0372093 Z M29.2093023,70.7906976 C29.8639825,71.4449584 30.2318134,72.3325783 30.2318134,73.2581394 C30.2318134,74.1837006 29.8639825,75.0713205 29.2093023,75.7255813 L18.4651163,86.4697673 C17.5897006,87.376996 16.2928881,87.741284 15.073106,87.4226179 C13.8533239,87.1039518 12.900397,86.151923 12.5805809,84.932442 C12.2607647,83.7129609 12.6238297,82.4158055 13.5302325,81.5395348 L24.2790697,70.7906976 C24.9325362,70.1362998 25.8193861,69.7685845 26.744186,69.7685845 C27.6689859,69.7685845 28.5558358,70.1362998 29.2093023,70.7906976 Z M86.4697673,81.5395348 C87.3761701,82.4158055 87.7392351,83.7129609 87.419419,84.932442 C87.0996028,86.151923 86.1466759,87.1039518 84.9268938,87.4226179 C83.7071117,87.741284 82.4102992,87.376996 81.5348836,86.4697673 L70.7906976,75.7255813 C69.4680415,74.3574434 69.4859153,72.1817044 70.8308699,70.835481 C72.1758244,69.4892575 74.3515456,69.4693322 75.7209301,70.7906976 L86.4697673,81.5395348 Z M30.6558139,12.4418604 C30.1789059,11.2903021 30.3525737,9.97179079 31.1113985,8.98299711 C31.8702234,7.99420344 33.0989216,7.48534863 34.3346544,7.64811338 C35.5703873,7.81087812 36.6254175,8.62053459 37.1023255,9.77209301 L40.6651162,18.3627907 C41.4023521,20.1519364 40.5496108,22.1999733 38.7604651,22.9372093 C36.9713193,23.6744452 34.9232824,22.8217038 34.1860465,21.0325581 L30.6558139,12.4418604 Z M59.0697674,18.3627907 L62.6279069,9.77209301 C63.1048149,8.62053458 64.1598452,7.81087811 65.395578,7.64811336 C66.6313109,7.48534861 67.8600091,7.99420342 68.6188339,8.98299711 C69.3776587,9.97179079 69.5513266,11.2903021 69.0744185,12.4418604 L65.5116278,21.0325581 C65.0621281,22.2234252 63.999671,23.0749212 62.7394917,23.2542601 C61.4793124,23.433599 60.2214909,22.9123069 59.4576155,21.8941179 C58.6937402,20.8759289 58.5450923,19.5225021 59.0697674,18.3627907 L59.0697674,18.3627907 Z M8.06976743,32.8093023 C8.42372232,31.9543771 9.10284005,31.2751044 9.95768451,30.9209546 C10.812529,30.5668047 11.773056,30.566796 12.627907,30.9209302 L21.2186046,34.4837209 C22.9987596,35.2209568 23.8442126,37.2617054 23.1069767,39.0418604 C22.3697408,40.8220154 20.3289922,41.6674684 18.5488372,40.9302325 L9.95813952,37.3674418 C9.10321431,37.0134869 8.42394169,36.3343692 8.06979183,35.4795247 C7.71564198,34.6246803 7.7156332,33.6641532 8.06976743,32.8093023 L8.06976743,32.8093023 Z M91.5209301,32.8093023 C91.8750643,33.6641532 91.8750555,34.6246803 91.5209057,35.4795247 C91.1667558,36.3343692 90.4874832,37.0134869 89.632558,37.3674418 L81.0418603,40.9302325 C79.890302,41.4071405 78.5717907,41.2334726 77.5829971,40.4746478 C76.5942034,39.715823 76.0853486,38.4871248 76.2481134,37.251392 C76.4108781,36.0156592 77.2205345,34.9606289 78.3720929,34.4837209 L86.9627906,30.9209302 C87.8176415,30.566796 88.7781685,30.5668047 89.633013,30.9209546 C90.4878575,31.2751044 91.1669752,31.9543771 91.5209301,32.8093023 L91.5209301,32.8093023 Z M12.8325581,68.9581394 C11.6809997,69.4350475 10.3624885,69.2613796 9.37369479,68.5025548 C8.38490111,67.74373 7.8760463,66.5150318 8.03881105,65.2792989 C8.2015758,64.0435661 9.01123226,62.9885358 10.1627907,62.5116278 L18.7534883,58.9534883 C19.9164812,58.4050843 21.286862,58.5409183 22.3195648,59.3069628 C23.3522676,60.0730073 23.879831,61.3450416 23.6924177,62.6171169 C23.5050045,63.8891922 22.6330052,64.9550308 21.4232558,65.3906976 L12.8325581,68.9581394 Z M91.7255813,67.0697673 C91.3716264,67.9246926 90.6925086,68.6039652 89.8376642,68.958115 C88.9828197,69.3122649 88.0222927,69.3122737 87.1674417,68.9581394 L78.5767441,65.3906976 C77.385877,64.9411978 76.534381,63.8787408 76.3550421,62.6185615 C76.1757032,61.3583822 76.6969953,60.1005607 77.7151843,59.3366853 C78.7333733,58.57281 80.0868001,58.4241621 81.2465115,58.9488371 L89.8372092,62.5069767 C90.6932888,62.8608971 91.3734407,63.5407916 91.7276853,64.3967372 C92.0819299,65.2526828 92.0811729,66.2143805 91.7255813,67.0697673 L91.7255813,67.0697673 Z" id="Shape" fill="#00D3AD"></path>
        </g>
    </g>
</svg>