<?xml version="1.0" encoding="UTF-8"?>
<svg width="512" height="512" viewBox="0 0 512 512" fill="none" xmlns="http://www.w3.org/2000/svg">
    <!-- Background circle -->
    <circle cx="256" cy="256" r="240" fill="#4CAF50"/>
    
    <!-- Cross -->
    <path d="M256 120 L256 360" stroke="white" stroke-width="40" stroke-linecap="round"/>
    <path d="M176 240 L336 240" stroke="white" stroke-width="40" stroke-linecap="round"/>
    
    <!-- Growing leaves -->
    <path d="M256 360 C256 360 216 320 216 280 C216 240 256 200 256 200 C256 200 296 240 296 280 C296 320 256 360 256 360" fill="#2E7D32"/>
    
    <!-- Small decorative leaves -->
    <path d="M216 280 C216 280 196 260 196 240 C196 220 216 200 216 200 C216 200 236 220 236 240 C236 260 216 280 216 280" fill="#81C784"/>
    <path d="M296 280 C296 280 276 260 276 240 C276 220 296 200 296 200 C296 200 316 220 316 240 C316 260 296 280 296 280" fill="#81C784"/>
</svg> 